<?xml version="1.0" encoding="utf-8"?>
<!-- Generator: Adobe Illustrator 19.0.0, SVG Export Plug-In . SVG Version: 6.00 Build 0)  -->
<svg version="1.1" id="Layer_1" xmlns="http://www.w3.org/2000/svg" xmlns:xlink="http://www.w3.org/1999/xlink" x="0px" y="0px"
	 viewBox="0 0 435.7 505.7" style="enable-background:new 0 0 435.7 505.7;" xml:space="preserve">
<style type="text/css">
	.st0{fill:none;stroke:#000000;stroke-width:11;stroke-miterlimit:10;}
</style>
<image style="overflow:visible;" width="512" height="512" xlink:href="../Downloads/tron.png"  transform="matrix(1 0 0 1 65.3216 535.4979)">
</image>
<g>
	<path class="st0" d="M5.5,5.5l185.3,494.7c0,0,0,0,0,0l21.3-245.3c0,0,0,0,0,0L348.8,94.2c0,0,0,0,0,0L5.5,5.5
		C5.5,5.5,5.5,5.5,5.5,5.5l206.7,249.3c0,0,0,0,0,0L426,144.2c0,0,0,0,0,0l-77.2-50c0,0,0,0,0,0l81.3,52.7c0,0,0,0,0,0L190.8,500.2"
		/>
</g>
</svg>
