<svg version="1.1" id="logo-main" xmlns="http://www.w3.org/2000/svg" xmlns:xlink="http://www.w3.org/1999/xlink" x="0px" y="0px"
	 viewBox="0 0 178.8 130.8" style="enable-background:new 0 0 178.8 130.8;" xml:space="preserve">
<style type="text/css">
	.st0{fill:url(#XMLID_214_);}
	.st1{fill:url(#XMLID_215_);}
	.st2{fill:url(#XMLID_216_);}
	.st3{fill:#FFFAFC;}
</style>
<linearGradient id="XMLID_214_" gradientUnits="userSpaceOnUse" x1="6.1486" y1="88.4414" x2="82.6346" y2="88.4414">
	<stop  offset="0.5862" style="stop-color:#046fdf"/>
	<stop  offset="1" style="stop-color:#1a88fb"/>
</linearGradient>
<path id="XMLID_1_" class="st0" d="M80.3,94.1L50,124.4c-3.1,3.1-8.2,3.1-11.3,0L8.5,94.1c-3.1-3.1-3.1-8.2,0-11.3l30.3-30.3
	c3.1-3.1,8.2-3.1,11.3,0l30.3,30.3C83.4,85.9,83.4,91,80.3,94.1z"/>
<linearGradient id="XMLID_215_" gradientUnits="userSpaceOnUse" x1="51.1105" y1="43.4795" x2="127.5966" y2="43.4795">
	<stop  offset="0" style="stop-color:#0356ad"/>
	<stop  offset="0.2069" style="stop-color:#0362c6"/>
	<stop  offset="1" style="stop-color:#046fdf;stop-opacity:0.8"/>
</linearGradient>
<path id="XMLID_2_" class="st1" d="M125.3,49.1L95,79.4c-3.1,3.1-8.2,3.1-11.3,0L53.4,49.1c-3.1-3.1-3.1-8.2,0-11.3L83.7,7.6
	c3.1-3.1,8.2-3.1,11.3,0l30.3,30.3C128.4,40.9,128.4,46,125.3,49.1z"/>
<linearGradient id="XMLID_216_" gradientUnits="userSpaceOnUse" x1="96.3654" y1="88.7343" x2="172.8514" y2="88.7343">
	<stop  offset="0.2512" style="stop-color:#3395fc"/>
	<stop  offset="1" style="stop-color:#4ca2fc;"/>
</linearGradient>
<path id="XMLID_3_" class="st2" d="M170.5,94.4l-30.3,30.3c-3.1,3.1-8.2,3.1-11.3,0L98.7,94.4c-3.1-3.1-3.1-8.2,0-11.3L129,52.8
	c3.1-3.1,8.2-3.1,11.3,0l30.3,30.3C173.6,86.2,173.6,91.3,170.5,94.4z"/>
<circle id="XMLID_212_" class="st3" cx="89.5" cy="16.6" r="4.3"/>
</svg>